<svg width="52" height="45" viewBox="0 0 52 45" fill="none" xmlns="http://www.w3.org/2000/svg">
<path d="M5.7373 1.66211H3.45215V8H2.51953V1.66211H0.239258V0.890625H5.7373V1.66211ZM7.55371 3.35645C7.9541 2.86491 8.47493 2.61914 9.11621 2.61914C10.2327 2.61914 10.7959 3.24902 10.8057 4.50879V8H9.90234V4.50391C9.89909 4.12305 9.8112 3.84147 9.63867 3.65918C9.4694 3.47689 9.2041 3.38574 8.84277 3.38574C8.5498 3.38574 8.29264 3.46387 8.07129 3.62012C7.84993 3.77637 7.67741 3.98145 7.55371 4.23535V8H6.65039V0.5H7.55371V3.35645ZM14.3506 8.09766C13.6344 8.09766 13.0518 7.86328 12.6025 7.39453C12.1533 6.92253 11.9287 6.29264 11.9287 5.50488V5.33887C11.9287 4.81478 12.028 4.34766 12.2266 3.9375C12.4284 3.52409 12.7083 3.20182 13.0664 2.9707C13.4277 2.73633 13.8184 2.61914 14.2383 2.61914C14.9251 2.61914 15.459 2.84538 15.8398 3.29785C16.2207 3.75033 16.4111 4.39811 16.4111 5.24121V5.61719H12.832C12.8451 6.13802 12.9964 6.55957 13.2861 6.88184C13.5791 7.20085 13.9502 7.36035 14.3994 7.36035C14.7184 7.36035 14.9886 7.29525 15.21 7.16504C15.4313 7.03483 15.625 6.8623 15.791 6.64746L16.3428 7.07715C15.9001 7.75749 15.236 8.09766 14.3506 8.09766ZM14.2383 3.36133C13.8737 3.36133 13.5677 3.49479 13.3203 3.76172C13.0729 4.02539 12.9199 4.39648 12.8613 4.875H15.5078V4.80664C15.4818 4.34766 15.3581 3.99284 15.1367 3.74219C14.9154 3.48828 14.6159 3.36133 14.2383 3.36133ZM20.9229 8H20.0195V0.5H20.9229V8ZM25.6348 8C25.5827 7.89583 25.5404 7.71029 25.5078 7.44336C25.0879 7.87956 24.5866 8.09766 24.0039 8.09766C23.4831 8.09766 23.055 7.95117 22.7197 7.6582C22.3877 7.36198 22.2217 6.98763 22.2217 6.53516C22.2217 5.98503 22.43 5.55859 22.8467 5.25586C23.2666 4.94987 23.8558 4.79688 24.6143 4.79688H25.4932V4.38184C25.4932 4.06608 25.3988 3.81543 25.21 3.62988C25.0212 3.44108 24.7428 3.34668 24.375 3.34668C24.0527 3.34668 23.7826 3.42806 23.5645 3.59082C23.3464 3.75358 23.2373 3.95052 23.2373 4.18164H22.3291C22.3291 3.91797 22.4219 3.66406 22.6074 3.41992C22.7962 3.17253 23.0501 2.97721 23.3691 2.83398C23.6914 2.69076 24.0446 2.61914 24.4287 2.61914C25.0374 2.61914 25.5143 2.77214 25.8594 3.07812C26.2044 3.38086 26.3835 3.79915 26.3965 4.33301V6.76465C26.3965 7.24967 26.4583 7.63542 26.582 7.92188V8H25.6348ZM24.1357 7.31152C24.4189 7.31152 24.6875 7.23828 24.9414 7.0918C25.1953 6.94531 25.3792 6.75488 25.4932 6.52051V5.43652H24.7852C23.6784 5.43652 23.125 5.76042 23.125 6.4082C23.125 6.69141 23.2194 6.91276 23.4082 7.07227C23.597 7.23177 23.8395 7.31152 24.1357 7.31152ZM30.8887 6.59863C30.8887 6.35449 30.7959 6.16569 30.6104 6.03223C30.4281 5.89551 30.1074 5.77832 29.6484 5.68066C29.1927 5.58301 28.8298 5.46582 28.5596 5.3291C28.2926 5.19238 28.0941 5.02962 27.9639 4.84082C27.8369 4.65202 27.7734 4.42741 27.7734 4.16699C27.7734 3.73405 27.9557 3.36784 28.3203 3.06836C28.6882 2.76888 29.1569 2.61914 29.7266 2.61914C30.3255 2.61914 30.8105 2.77376 31.1816 3.08301C31.556 3.39225 31.7432 3.78776 31.7432 4.26953H30.835C30.835 4.02214 30.7292 3.80892 30.5176 3.62988C30.3092 3.45085 30.0456 3.36133 29.7266 3.36133C29.3978 3.36133 29.1406 3.43294 28.9551 3.57617C28.7695 3.7194 28.6768 3.90658 28.6768 4.1377C28.6768 4.35579 28.763 4.52018 28.9355 4.63086C29.1081 4.74154 29.4189 4.84733 29.8682 4.94824C30.3206 5.04915 30.6868 5.1696 30.9668 5.30957C31.2467 5.44954 31.4535 5.61882 31.5869 5.81738C31.7236 6.0127 31.792 6.25195 31.792 6.53516C31.792 7.00716 31.6032 7.38639 31.2256 7.67285C30.848 7.95605 30.3581 8.09766 29.7559 8.09766C29.3327 8.09766 28.9583 8.02279 28.6328 7.87305C28.3073 7.72331 28.0518 7.51497 27.8662 7.24805C27.6839 6.97786 27.5928 6.68652 27.5928 6.37402H28.4961C28.5124 6.67676 28.6328 6.91764 28.8574 7.09668C29.0853 7.27246 29.3848 7.36035 29.7559 7.36035C30.0977 7.36035 30.3711 7.29199 30.5762 7.15527C30.7845 7.0153 30.8887 6.82975 30.8887 6.59863ZM34.1943 1.4375V2.7168H35.1807V3.41504H34.1943V6.69141C34.1943 6.90299 34.2383 7.0625 34.3262 7.16992C34.4141 7.27409 34.5638 7.32617 34.7754 7.32617C34.8796 7.32617 35.0228 7.30664 35.2051 7.26758V8C34.9674 8.0651 34.7363 8.09766 34.5117 8.09766C34.1081 8.09766 33.8037 7.97559 33.5986 7.73145C33.3936 7.4873 33.291 7.14062 33.291 6.69141V3.41504H32.3291V2.7168H33.291V1.4375H34.1943ZM1.9043 16.0059H2.58301C3.00944 15.9993 3.34473 15.887 3.58887 15.6689C3.83301 15.4508 3.95508 15.1562 3.95508 14.7852C3.95508 13.9518 3.54004 13.5352 2.70996 13.5352C2.31934 13.5352 2.00684 13.6475 1.77246 13.8721C1.54134 14.0934 1.42578 14.388 1.42578 14.7559H0.522461C0.522461 14.1927 0.727539 13.7256 1.1377 13.3545C1.55111 12.9801 2.0752 12.793 2.70996 12.793C3.38053 12.793 3.90625 12.9704 4.28711 13.3252C4.66797 13.68 4.8584 14.1732 4.8584 14.8047C4.8584 15.1139 4.75749 15.4134 4.55566 15.7031C4.3571 15.9928 4.08529 16.2093 3.74023 16.3525C4.13086 16.4762 4.43197 16.6813 4.64355 16.9678C4.8584 17.2542 4.96582 17.6042 4.96582 18.0176C4.96582 18.6556 4.75749 19.1618 4.34082 19.5361C3.92415 19.9105 3.38216 20.0977 2.71484 20.0977C2.04753 20.0977 1.50391 19.917 1.08398 19.5557C0.667318 19.1943 0.458984 18.7174 0.458984 18.125H1.36719C1.36719 18.4993 1.48926 18.7988 1.7334 19.0234C1.97754 19.248 2.30469 19.3604 2.71484 19.3604C3.15104 19.3604 3.4847 19.2464 3.71582 19.0186C3.94694 18.7907 4.0625 18.4635 4.0625 18.0371C4.0625 17.6237 3.93555 17.3063 3.68164 17.085C3.42773 16.8636 3.06152 16.7497 2.58301 16.7432H1.9043V16.0059ZM8.54004 17.3096C8.54004 16.792 8.64095 16.3265 8.84277 15.9131C9.04785 15.4997 9.33105 15.1807 9.69238 14.9561C10.057 14.7314 10.472 14.6191 10.9375 14.6191C11.6569 14.6191 12.238 14.8682 12.6807 15.3662C13.1266 15.8643 13.3496 16.5267 13.3496 17.3535V17.417C13.3496 17.9313 13.2503 18.3936 13.0518 18.8037C12.8564 19.2106 12.5749 19.528 12.207 19.7559C11.8424 19.9837 11.4225 20.0977 10.9473 20.0977C10.2311 20.0977 9.65007 19.8486 9.2041 19.3506C8.76139 18.8525 8.54004 18.1934 8.54004 17.373V17.3096ZM9.44824 17.417C9.44824 18.0029 9.58333 18.4733 9.85352 18.8281C10.127 19.1829 10.4915 19.3604 10.9473 19.3604C11.4062 19.3604 11.7708 19.1813 12.041 18.8232C12.3112 18.4619 12.4463 17.9574 12.4463 17.3096C12.4463 16.7301 12.3079 16.2614 12.0312 15.9033C11.7578 15.542 11.3932 15.3613 10.9375 15.3613C10.4915 15.3613 10.1318 15.5387 9.8584 15.8936C9.58496 16.2484 9.44824 16.7562 9.44824 17.417ZM17.0361 15.5273C16.8994 15.5046 16.7513 15.4932 16.5918 15.4932C15.9993 15.4932 15.5973 15.7454 15.3857 16.25V20H14.4824V14.7168H15.3613L15.376 15.3271C15.6722 14.8551 16.0921 14.6191 16.6357 14.6191C16.8115 14.6191 16.945 14.6419 17.0361 14.6875V15.5273ZM24.0723 17.6123H25.0586V18.3496H24.0723V20H23.1641V18.3496H19.9268V17.8174L23.1104 12.8906H24.0723V17.6123ZM20.9521 17.6123H23.1641V14.126L23.0566 14.3213L20.9521 17.6123ZM28.2275 17.3145C28.2275 16.5039 28.4196 15.8529 28.8037 15.3613C29.1878 14.8665 29.6908 14.6191 30.3125 14.6191C30.931 14.6191 31.4209 14.8307 31.7822 15.2539V12.5H32.6855V20H31.8555L31.8115 19.4336C31.4502 19.8763 30.9473 20.0977 30.3027 20.0977C29.6908 20.0977 29.1911 19.847 28.8037 19.3457C28.4196 18.8444 28.2275 18.1901 28.2275 17.3828V17.3145ZM29.1309 17.417C29.1309 18.016 29.2546 18.4847 29.502 18.8232C29.7493 19.1618 30.0911 19.3311 30.5273 19.3311C31.1003 19.3311 31.5186 19.0739 31.7822 18.5596V16.1328C31.512 15.6348 31.097 15.3857 30.5371 15.3857C30.0944 15.3857 29.7493 15.5566 29.502 15.8984C29.2546 16.2402 29.1309 16.7464 29.1309 17.417ZM35.0732 20H34.1699V14.7168H35.0732V20ZM34.0967 13.3154C34.0967 13.1689 34.1406 13.0452 34.2285 12.9443C34.3197 12.8434 34.4531 12.793 34.6289 12.793C34.8047 12.793 34.9382 12.8434 35.0293 12.9443C35.1204 13.0452 35.166 13.1689 35.166 13.3154C35.166 13.4619 35.1204 13.584 35.0293 13.6816C34.9382 13.7793 34.8047 13.8281 34.6289 13.8281C34.4531 13.8281 34.3197 13.7793 34.2285 13.6816C34.1406 13.584 34.0967 13.4619 34.0967 13.3154ZM36.3086 17.3145C36.3086 16.4909 36.499 15.8366 36.8799 15.3516C37.2607 14.8633 37.7653 14.6191 38.3936 14.6191C39.0381 14.6191 39.541 14.847 39.9023 15.3027L39.9463 14.7168H40.7715V19.873C40.7715 20.5566 40.568 21.0954 40.1611 21.4893C39.7575 21.8831 39.2139 22.0801 38.5303 22.0801C38.1494 22.0801 37.7767 21.9987 37.4121 21.8359C37.0475 21.6732 36.7692 21.4502 36.5771 21.167L37.0459 20.625C37.4333 21.1035 37.9069 21.3428 38.4668 21.3428C38.9062 21.3428 39.248 21.2191 39.4922 20.9717C39.7396 20.7243 39.8633 20.376 39.8633 19.9268V19.4727C39.502 19.8893 39.0088 20.0977 38.3838 20.0977C37.7653 20.0977 37.264 19.8486 36.8799 19.3506C36.499 18.8525 36.3086 18.1738 36.3086 17.3145ZM37.2168 17.417C37.2168 18.0127 37.3389 18.4814 37.583 18.8232C37.8271 19.1618 38.1689 19.3311 38.6084 19.3311C39.1781 19.3311 39.5964 19.0723 39.8633 18.5547V16.1426C39.5866 15.638 39.1715 15.3857 38.6182 15.3857C38.1787 15.3857 37.8353 15.5566 37.5879 15.8984C37.3405 16.2402 37.2168 16.7464 37.2168 17.417ZM43.1201 20H42.2168V14.7168H43.1201V20ZM42.1436 13.3154C42.1436 13.1689 42.1875 13.0452 42.2754 12.9443C42.3665 12.8434 42.5 12.793 42.6758 12.793C42.8516 12.793 42.985 12.8434 43.0762 12.9443C43.1673 13.0452 43.2129 13.1689 43.2129 13.3154C43.2129 13.4619 43.1673 13.584 43.0762 13.6816C42.985 13.7793 42.8516 13.8281 42.6758 13.8281C42.5 13.8281 42.3665 13.7793 42.2754 13.6816C42.1875 13.584 42.1436 13.4619 42.1436 13.3154ZM45.7959 13.4375V14.7168H46.7822V15.415H45.7959V18.6914C45.7959 18.903 45.8398 19.0625 45.9277 19.1699C46.0156 19.2741 46.1654 19.3262 46.377 19.3262C46.4811 19.3262 46.6243 19.3066 46.8066 19.2676V20C46.569 20.0651 46.3379 20.0977 46.1133 20.0977C45.7096 20.0977 45.4053 19.9756 45.2002 19.7314C44.9951 19.4873 44.8926 19.1406 44.8926 18.6914V15.415H43.9307V14.7168H44.8926V13.4375H45.7959ZM50.918 18.5986C50.918 18.3545 50.8252 18.1657 50.6396 18.0322C50.4574 17.8955 50.1367 17.7783 49.6777 17.6807C49.222 17.583 48.859 17.4658 48.5889 17.3291C48.3219 17.1924 48.1234 17.0296 47.9932 16.8408C47.8662 16.652 47.8027 16.4274 47.8027 16.167C47.8027 15.734 47.985 15.3678 48.3496 15.0684C48.7174 14.7689 49.1862 14.6191 49.7559 14.6191C50.3548 14.6191 50.8398 14.7738 51.2109 15.083C51.5853 15.3923 51.7725 15.7878 51.7725 16.2695H50.8643C50.8643 16.0221 50.7585 15.8089 50.5469 15.6299C50.3385 15.4508 50.0749 15.3613 49.7559 15.3613C49.4271 15.3613 49.1699 15.4329 48.9844 15.5762C48.7988 15.7194 48.7061 15.9066 48.7061 16.1377C48.7061 16.3558 48.7923 16.5202 48.9648 16.6309C49.1374 16.7415 49.4482 16.8473 49.8975 16.9482C50.3499 17.0492 50.7161 17.1696 50.9961 17.3096C51.276 17.4495 51.4827 17.6188 51.6162 17.8174C51.7529 18.0127 51.8213 18.252 51.8213 18.5352C51.8213 19.0072 51.6325 19.3864 51.2549 19.6729C50.8773 19.9561 50.3874 20.0977 49.7852 20.0977C49.362 20.0977 48.9876 20.0228 48.6621 19.873C48.3366 19.7233 48.0811 19.515 47.8955 19.248C47.7132 18.9779 47.6221 18.6865 47.6221 18.374H48.5254C48.5417 18.6768 48.6621 18.9176 48.8867 19.0967C49.1146 19.2725 49.4141 19.3604 49.7852 19.3604C50.127 19.3604 50.4004 19.292 50.6055 19.1553C50.8138 19.0153 50.918 18.8298 50.918 18.5986ZM0.444336 29.3096C0.444336 28.792 0.545247 28.3265 0.74707 27.9131C0.952148 27.4997 1.23535 27.1807 1.59668 26.9561C1.96126 26.7314 2.3763 26.6191 2.8418 26.6191C3.5612 26.6191 4.14225 26.8682 4.58496 27.3662C5.03092 27.8643 5.25391 28.5267 5.25391 29.3535V29.417C5.25391 29.9313 5.15462 30.3936 4.95605 30.8037C4.76074 31.2106 4.47917 31.528 4.11133 31.7559C3.74674 31.9837 3.32682 32.0977 2.85156 32.0977C2.13542 32.0977 1.55436 31.8486 1.1084 31.3506C0.66569 30.8525 0.444336 30.1934 0.444336 29.373V29.3096ZM1.35254 29.417C1.35254 30.0029 1.48763 30.4733 1.75781 30.8281C2.03125 31.1829 2.39583 31.3604 2.85156 31.3604C3.31055 31.3604 3.67513 31.1813 3.94531 30.8232C4.21549 30.4619 4.35059 29.9574 4.35059 29.3096C4.35059 28.7301 4.21224 28.2614 3.93555 27.9033C3.66211 27.542 3.29753 27.3613 2.8418 27.3613C2.39583 27.3613 2.03613 27.5387 1.7627 27.8936C1.48926 28.2484 1.35254 28.7562 1.35254 29.417ZM7.24121 26.7168L7.27051 27.3809C7.67415 26.873 8.2015 26.6191 8.85254 26.6191C9.96908 26.6191 10.5322 27.249 10.542 28.5088V32H9.63867V28.5039C9.63542 28.123 9.54753 27.8415 9.375 27.6592C9.20573 27.4769 8.94043 27.3857 8.5791 27.3857C8.28613 27.3857 8.02897 27.4639 7.80762 27.6201C7.58626 27.7764 7.41374 27.9814 7.29004 28.2354V32H6.38672V26.7168H7.24121ZM18.8574 29.417C18.8574 30.2243 18.6719 30.8737 18.3008 31.3652C17.9297 31.8535 17.4316 32.0977 16.8066 32.0977C16.1393 32.0977 15.6234 31.8617 15.2588 31.3896L15.2148 32H14.3848V24.5H15.2881V27.2979C15.6527 26.8454 16.1556 26.6191 16.7969 26.6191C17.4382 26.6191 17.9411 26.8617 18.3057 27.3467C18.6735 27.8317 18.8574 28.4958 18.8574 29.3389V29.417ZM17.9541 29.3145C17.9541 28.6992 17.8353 28.224 17.5977 27.8887C17.36 27.5534 17.0182 27.3857 16.5723 27.3857C15.9766 27.3857 15.5485 27.6624 15.2881 28.2158V30.501C15.5648 31.0544 15.9961 31.3311 16.582 31.3311C17.015 31.3311 17.3519 31.1634 17.5928 30.8281C17.8337 30.4928 17.9541 29.9883 17.9541 29.3145ZM23.2617 32C23.2096 31.8958 23.1673 31.7103 23.1348 31.4434C22.7148 31.8796 22.2135 32.0977 21.6309 32.0977C21.11 32.0977 20.682 31.9512 20.3467 31.6582C20.0146 31.362 19.8486 30.9876 19.8486 30.5352C19.8486 29.985 20.057 29.5586 20.4736 29.2559C20.8936 28.9499 21.4827 28.7969 22.2412 28.7969H23.1201V28.3818C23.1201 28.0661 23.0257 27.8154 22.8369 27.6299C22.6481 27.4411 22.3698 27.3467 22.002 27.3467C21.6797 27.3467 21.4095 27.4281 21.1914 27.5908C20.9733 27.7536 20.8643 27.9505 20.8643 28.1816H19.9561C19.9561 27.918 20.0488 27.6641 20.2344 27.4199C20.4232 27.1725 20.6771 26.9772 20.9961 26.834C21.3184 26.6908 21.6715 26.6191 22.0557 26.6191C22.6644 26.6191 23.1413 26.7721 23.4863 27.0781C23.8314 27.3809 24.0104 27.7992 24.0234 28.333V30.7646C24.0234 31.2497 24.0853 31.6354 24.209 31.9219V32H23.2617ZM21.7627 31.3115C22.0459 31.3115 22.3145 31.2383 22.5684 31.0918C22.8223 30.9453 23.0062 30.7549 23.1201 30.5205V29.4365H22.4121C21.3053 29.4365 20.752 29.7604 20.752 30.4082C20.752 30.6914 20.8464 30.9128 21.0352 31.0723C21.224 31.2318 21.4665 31.3115 21.7627 31.3115ZM27.5586 31.3604C27.8809 31.3604 28.1624 31.2627 28.4033 31.0674C28.6442 30.8721 28.7777 30.6279 28.8037 30.335H29.6582C29.6419 30.6377 29.5378 30.9258 29.3457 31.1992C29.1536 31.4727 28.8965 31.6908 28.5742 31.8535C28.2552 32.0163 27.9167 32.0977 27.5586 32.0977C26.8392 32.0977 26.2663 31.8584 25.8398 31.3799C25.4167 30.8981 25.2051 30.2406 25.2051 29.4072V29.2559C25.2051 28.7415 25.2995 28.2842 25.4883 27.8838C25.6771 27.4834 25.9473 27.1725 26.2988 26.9512C26.6536 26.7298 27.0719 26.6191 27.5537 26.6191C28.1462 26.6191 28.6377 26.7965 29.0283 27.1514C29.4222 27.5062 29.6322 27.9668 29.6582 28.5332H28.8037C28.7777 28.1914 28.6475 27.9115 28.4131 27.6934C28.182 27.472 27.8955 27.3613 27.5537 27.3613C27.0947 27.3613 26.7383 27.5273 26.4844 27.8594C26.2337 28.1882 26.1084 28.665 26.1084 29.29V29.4609C26.1084 30.0697 26.2337 30.5384 26.4844 30.8672C26.735 31.196 27.0931 31.3604 27.5586 31.3604ZM32.1484 29.5537L31.582 30.1445V32H30.6787V24.5H31.582V29.0361L32.0654 28.4551L33.7109 26.7168H34.8096L32.7539 28.9238L35.0488 32H33.9893L32.1484 29.5537ZM0.444336 41.3096C0.444336 40.792 0.545247 40.3265 0.74707 39.9131C0.952148 39.4997 1.23535 39.1807 1.59668 38.9561C1.96126 38.7314 2.3763 38.6191 2.8418 38.6191C3.5612 38.6191 4.14225 38.8682 4.58496 39.3662C5.03092 39.8643 5.25391 40.5267 5.25391 41.3535V41.417C5.25391 41.9313 5.15462 42.3936 4.95605 42.8037C4.76074 43.2106 4.47917 43.528 4.11133 43.7559C3.74674 43.9837 3.32682 44.0977 2.85156 44.0977C2.13542 44.0977 1.55436 43.8486 1.1084 43.3506C0.66569 42.8525 0.444336 42.1934 0.444336 41.373V41.3096ZM1.35254 41.417C1.35254 42.0029 1.48763 42.4733 1.75781 42.8281C2.03125 43.1829 2.39583 43.3604 2.85156 43.3604C3.31055 43.3604 3.67513 43.1813 3.94531 42.8232C4.21549 42.4619 4.35059 41.9574 4.35059 41.3096C4.35059 40.7301 4.21224 40.2614 3.93555 39.9033C3.66211 39.542 3.29753 39.3613 2.8418 39.3613C2.39583 39.3613 2.03613 39.5387 1.7627 39.8936C1.48926 40.2484 1.35254 40.7562 1.35254 41.417ZM6.83105 44V39.415H5.99609V38.7168H6.83105V38.1748C6.83105 37.6084 6.98242 37.1706 7.28516 36.8613C7.58789 36.5521 8.01595 36.3975 8.56934 36.3975C8.77767 36.3975 8.98438 36.4251 9.18945 36.4805L9.14062 37.2129C8.98763 37.1836 8.82487 37.1689 8.65234 37.1689C8.35938 37.1689 8.13314 37.2552 7.97363 37.4277C7.81413 37.597 7.73438 37.8411 7.73438 38.1602V38.7168H8.8623V39.415H7.73438V44H6.83105ZM13.5693 37.4375V38.7168H14.5557V39.415H13.5693V42.6914C13.5693 42.903 13.6133 43.0625 13.7012 43.1699C13.7891 43.2741 13.9388 43.3262 14.1504 43.3262C14.2546 43.3262 14.3978 43.3066 14.5801 43.2676V44C14.3424 44.0651 14.1113 44.0977 13.8867 44.0977C13.4831 44.0977 13.1787 43.9756 12.9736 43.7314C12.7686 43.4873 12.666 43.1406 12.666 42.6914V39.415H11.7041V38.7168H12.666V37.4375H13.5693ZM16.5186 39.3564C16.9189 38.8649 17.4398 38.6191 18.0811 38.6191C19.1976 38.6191 19.7607 39.249 19.7705 40.5088V44H18.8672V40.5039C18.8639 40.123 18.776 39.8415 18.6035 39.6592C18.4342 39.4769 18.1689 39.3857 17.8076 39.3857C17.5146 39.3857 17.2575 39.4639 17.0361 39.6201C16.8148 39.7764 16.6423 39.9814 16.5186 40.2354V44H15.6152V36.5H16.5186V39.3564ZM23.3154 44.0977C22.5993 44.0977 22.0166 43.8633 21.5674 43.3945C21.1182 42.9225 20.8936 42.2926 20.8936 41.5049V41.3389C20.8936 40.8148 20.9928 40.3477 21.1914 39.9375C21.3932 39.5241 21.6732 39.2018 22.0312 38.9707C22.3926 38.7363 22.7832 38.6191 23.2031 38.6191C23.89 38.6191 24.4238 38.8454 24.8047 39.2979C25.1855 39.7503 25.376 40.3981 25.376 41.2412V41.6172H21.7969C21.8099 42.138 21.9613 42.5596 22.251 42.8818C22.5439 43.2008 22.915 43.3604 23.3643 43.3604C23.6833 43.3604 23.9535 43.2952 24.1748 43.165C24.3962 43.0348 24.5898 42.8623 24.7559 42.6475L25.3076 43.0771C24.8649 43.7575 24.2008 44.0977 23.3154 44.0977ZM23.2031 39.3613C22.8385 39.3613 22.5326 39.4948 22.2852 39.7617C22.0378 40.0254 21.8848 40.3965 21.8262 40.875H24.4727V40.8066C24.4466 40.3477 24.3229 39.9928 24.1016 39.7422C23.8802 39.4883 23.5807 39.3613 23.2031 39.3613ZM31.0254 43.3604C31.3477 43.3604 31.6292 43.2627 31.8701 43.0674C32.111 42.8721 32.2445 42.6279 32.2705 42.335H33.125C33.1087 42.6377 33.0046 42.9258 32.8125 43.1992C32.6204 43.4727 32.3633 43.6908 32.041 43.8535C31.722 44.0163 31.3835 44.0977 31.0254 44.0977C30.306 44.0977 29.7331 43.8584 29.3066 43.3799C28.8835 42.8981 28.6719 42.2406 28.6719 41.4072V41.2559C28.6719 40.7415 28.7663 40.2842 28.9551 39.8838C29.1439 39.4834 29.4141 39.1725 29.7656 38.9512C30.1204 38.7298 30.5387 38.6191 31.0205 38.6191C31.613 38.6191 32.1045 38.7965 32.4951 39.1514C32.889 39.5062 33.099 39.9668 33.125 40.5332H32.2705C32.2445 40.1914 32.1143 39.9115 31.8799 39.6934C31.6488 39.472 31.3623 39.3613 31.0205 39.3613C30.5615 39.3613 30.2051 39.5273 29.9512 39.8594C29.7005 40.1882 29.5752 40.665 29.5752 41.29V41.4609C29.5752 42.0697 29.7005 42.5384 29.9512 42.8672C30.2018 43.196 30.5599 43.3604 31.0254 43.3604ZM37.4023 44C37.3503 43.8958 37.3079 43.7103 37.2754 43.4434C36.8555 43.8796 36.3542 44.0977 35.7715 44.0977C35.2507 44.0977 34.8226 43.9512 34.4873 43.6582C34.1553 43.362 33.9893 42.9876 33.9893 42.5352C33.9893 41.985 34.1976 41.5586 34.6143 41.2559C35.0342 40.9499 35.6234 40.7969 36.3818 40.7969H37.2607V40.3818C37.2607 40.0661 37.1663 39.8154 36.9775 39.6299C36.7887 39.4411 36.5104 39.3467 36.1426 39.3467C35.8203 39.3467 35.5501 39.4281 35.332 39.5908C35.1139 39.7536 35.0049 39.9505 35.0049 40.1816H34.0967C34.0967 39.918 34.1895 39.6641 34.375 39.4199C34.5638 39.1725 34.8177 38.9772 35.1367 38.834C35.459 38.6908 35.8122 38.6191 36.1963 38.6191C36.805 38.6191 37.2819 38.7721 37.627 39.0781C37.972 39.3809 38.151 39.7992 38.1641 40.333V42.7646C38.1641 43.2497 38.2259 43.6354 38.3496 43.9219V44H37.4023ZM35.9033 43.3115C36.1865 43.3115 36.4551 43.2383 36.709 43.0918C36.9629 42.9453 37.1468 42.7549 37.2607 42.5205V41.4365H36.5527C35.446 41.4365 34.8926 41.7604 34.8926 42.4082C34.8926 42.6914 34.987 42.9128 35.1758 43.0723C35.3646 43.2318 35.6071 43.3115 35.9033 43.3115ZM42.1338 39.5273C41.9971 39.5046 41.849 39.4932 41.6895 39.4932C41.097 39.4932 40.695 39.7454 40.4834 40.25V44H39.5801V38.7168H40.459L40.4736 39.3271C40.7699 38.8551 41.1898 38.6191 41.7334 38.6191C41.9092 38.6191 42.0426 38.6419 42.1338 38.6875V39.5273ZM42.6514 41.3145C42.6514 40.5039 42.8434 39.8529 43.2275 39.3613C43.6117 38.8665 44.1146 38.6191 44.7363 38.6191C45.3548 38.6191 45.8447 38.8307 46.2061 39.2539V36.5H47.1094V44H46.2793L46.2354 43.4336C45.874 43.8763 45.3711 44.0977 44.7266 44.0977C44.1146 44.0977 43.6149 43.847 43.2275 43.3457C42.8434 42.8444 42.6514 42.1901 42.6514 41.3828V41.3145ZM43.5547 41.417C43.5547 42.016 43.6784 42.4847 43.9258 42.8232C44.1732 43.1618 44.515 43.3311 44.9512 43.3311C45.5241 43.3311 45.9424 43.0739 46.2061 42.5596V40.1328C45.9359 39.6348 45.5208 39.3857 44.9609 39.3857C44.5182 39.3857 44.1732 39.5566 43.9258 39.8984C43.6784 40.2402 43.5547 40.7464 43.5547 41.417Z" fill="#161615"/>
</svg>
